<svg width="25" height="24" viewBox="0 0 25 24" fill="currentColor" xmlns="http://www.w3.org/2000/svg">
<path d="M5.08564 19H6.51782L16.3421 9.225L14.9099 7.8L5.08564 17.575V19ZM3.07556 21V16.75L16.3421 3.575C16.5431 3.39167 16.765 3.25 17.0079 3.15C17.2508 3.05 17.5062 3 17.7742 3C18.0422 3 18.3019 3.05 18.5531 3.15C18.8044 3.25 19.0222 3.4 19.2064 3.6L20.5883 5C20.7894 5.18333 20.9359 5.4 21.028 5.65C21.1202 5.9 21.1662 6.15 21.1662 6.4C21.1662 6.66667 21.1202 6.92083 21.028 7.1625C20.9359 7.40417 20.7894 7.625 20.5883 7.825L7.34697 21H3.07556ZM15.6134 8.525L14.9099 7.8L16.3421 9.225L15.6134 8.525Z" />
</svg>
