<svg width="68" height="56" viewBox="0 0 68 56" fill="none" xmlns="http://www.w3.org/2000/svg">
<g filter="url(#filter0_d_2_9)">
<path d="M9.82955 38.8204C9.77841 38.3886 9.57102 38.0533 9.20739 37.8147C8.84375 37.5761 8.39773 37.4568 7.86932 37.4568C7.48295 37.4568 7.14489 37.5193 6.85511 37.6443C6.56818 37.7693 6.34375 37.9411 6.18182 38.1599C6.02273 38.3786 5.94318 38.6272 5.94318 38.9056C5.94318 39.1386 5.99858 39.3389 6.10938 39.5065C6.22301 39.6712 6.3679 39.809 6.54403 39.9198C6.72017 40.0278 6.90483 40.1173 7.09801 40.1883C7.29119 40.2565 7.46875 40.3119 7.63068 40.3545L8.51705 40.5931C8.74432 40.6528 8.99716 40.7352 9.27557 40.8403C9.55682 40.9454 9.82528 41.0889 10.081 41.2707C10.3395 41.4497 10.5526 41.6798 10.7202 41.961C10.8878 42.2423 10.9716 42.5874 10.9716 42.9965C10.9716 43.4681 10.848 43.8943 10.6009 44.2749C10.3565 44.6556 9.99858 44.9582 9.52699 45.1826C9.05824 45.407 8.48864 45.5193 7.81818 45.5193C7.19318 45.5193 6.65199 45.4184 6.1946 45.2167C5.74006 45.015 5.3821 44.7337 5.12074 44.3729C4.86222 44.0122 4.71591 43.5931 4.68182 43.1158H5.77273C5.80114 43.4454 5.91193 43.7181 6.10511 43.934C6.30114 44.1471 6.5483 44.3062 6.84659 44.4113C7.14773 44.5136 7.47159 44.5647 7.81818 44.5647C8.22159 44.5647 8.58381 44.4994 8.90483 44.3687C9.22585 44.2352 9.48011 44.0505 9.66761 43.8147C9.85511 43.5761 9.94886 43.2977 9.94886 42.9795C9.94886 42.6897 9.8679 42.4539 9.70597 42.2721C9.54403 42.0903 9.33097 41.9425 9.06676 41.8289C8.80256 41.7153 8.51705 41.6158 8.21023 41.5306L7.13636 41.2238C6.45455 41.0278 5.91477 40.7479 5.51705 40.3843C5.11932 40.0207 4.92045 39.5448 4.92045 38.9568C4.92045 38.4681 5.05256 38.042 5.31676 37.6783C5.58381 37.3119 5.94176 37.0278 6.39062 36.8261C6.84233 36.6215 7.34659 36.5193 7.90341 36.5193C8.46591 36.5193 8.96591 36.6201 9.40341 36.8218C9.84091 37.0207 10.1875 37.2934 10.4432 37.64C10.7017 37.9866 10.8381 38.38 10.8523 38.8204H9.82955ZM15.2319 45.5022C14.641 45.5022 14.1225 45.3616 13.6765 45.0803C13.2333 44.7991 12.8867 44.4056 12.6367 43.8999C12.3896 43.3943 12.266 42.8033 12.266 42.1272C12.266 41.4454 12.3896 40.8502 12.6367 40.3417C12.8867 39.8332 13.2333 39.4383 13.6765 39.157C14.1225 38.8758 14.641 38.7352 15.2319 38.7352C15.8228 38.7352 16.3398 38.8758 16.783 39.157C17.229 39.4383 17.5756 39.8332 17.8228 40.3417C18.0728 40.8502 18.1978 41.4454 18.1978 42.1272C18.1978 42.8033 18.0728 43.3943 17.8228 43.8999C17.5756 44.4056 17.229 44.7991 16.783 45.0803C16.3398 45.3616 15.8228 45.5022 15.2319 45.5022ZM15.2319 44.5988C15.6808 44.5988 16.0501 44.4837 16.3398 44.2536C16.6296 44.0235 16.8441 43.721 16.9833 43.346C17.1225 42.971 17.1921 42.5647 17.1921 42.1272C17.1921 41.6897 17.1225 41.282 16.9833 40.9042C16.8441 40.5264 16.6296 40.221 16.3398 39.988C16.0501 39.755 15.6808 39.6386 15.2319 39.6386C14.783 39.6386 14.4137 39.755 14.1239 39.988C13.8342 40.221 13.6197 40.5264 13.4805 40.9042C13.3413 41.282 13.2717 41.6897 13.2717 42.1272C13.2717 42.5647 13.3413 42.971 13.4805 43.346C13.6197 43.721 13.8342 44.0235 14.1239 44.2536C14.4137 44.4837 14.783 44.5988 15.2319 44.5988ZM22.392 45.5022C21.7784 45.5022 21.25 45.3573 20.8068 45.0675C20.3636 44.7778 20.0227 44.3786 19.7841 43.8701C19.5455 43.3616 19.4261 42.7806 19.4261 42.1272C19.4261 41.4624 19.5483 40.8758 19.7926 40.3673C20.0398 39.8559 20.3835 39.4568 20.8239 39.1698C21.267 38.88 21.7841 38.7352 22.375 38.7352C22.8352 38.7352 23.25 38.8204 23.6193 38.9908C23.9886 39.1613 24.2912 39.3999 24.527 39.7068C24.7628 40.0136 24.9091 40.3715 24.9659 40.7806H23.9602C23.8835 40.4823 23.7131 40.2181 23.4489 39.988C23.1875 39.755 22.8352 39.6386 22.392 39.6386C22 39.6386 21.6563 39.7408 21.3608 39.9454C21.0682 40.1471 20.8395 40.4326 20.6747 40.8019C20.5128 41.1684 20.4318 41.5988 20.4318 42.0931C20.4318 42.5988 20.5114 43.0391 20.6705 43.4141C20.8324 43.7891 21.0597 44.0803 21.3523 44.2877C21.6477 44.4951 21.9943 44.5988 22.392 44.5988C22.6534 44.5988 22.8906 44.5533 23.1037 44.4624C23.3168 44.3715 23.4972 44.2408 23.6449 44.0704C23.7926 43.8999 23.8977 43.6954 23.9602 43.4568H24.9659C24.9091 43.8431 24.7685 44.1911 24.544 44.5008C24.3224 44.8076 24.0284 45.0519 23.6619 45.2337C23.2983 45.4127 22.875 45.5022 22.392 45.5022ZM26.4361 45.3658V38.8204H27.4418V45.3658H26.4361ZM26.9474 37.7295C26.7514 37.7295 26.5824 37.6627 26.4403 37.5292C26.3011 37.3957 26.2315 37.2352 26.2315 37.0477C26.2315 36.8602 26.3011 36.6997 26.4403 36.5661C26.5824 36.4326 26.7514 36.3658 26.9474 36.3658C27.1435 36.3658 27.3111 36.4326 27.4503 36.5661C27.5923 36.6997 27.6634 36.8602 27.6634 37.0477C27.6634 37.2352 27.5923 37.3957 27.4503 37.5292C27.3111 37.6627 27.1435 37.7295 26.9474 37.7295ZM31.2099 45.5193C30.7951 45.5193 30.4187 45.4411 30.0806 45.2849C29.7425 45.1258 29.4741 44.8971 29.2752 44.5988C29.0763 44.2977 28.9769 43.934 28.9769 43.5079C28.9769 43.1329 29.0508 42.8289 29.1985 42.596C29.3462 42.3602 29.5437 42.1755 29.7908 42.042C30.038 41.9085 30.3107 41.809 30.609 41.7437C30.9102 41.6755 31.2127 41.6215 31.5167 41.5818C31.9144 41.5306 32.2369 41.4923 32.484 41.4667C32.734 41.4383 32.9158 41.3914 33.0295 41.3261C33.146 41.2607 33.2042 41.1471 33.2042 40.9852V40.9511C33.2042 40.5306 33.0891 40.2039 32.859 39.971C32.6317 39.738 32.2866 39.6215 31.8235 39.6215C31.3434 39.6215 30.967 39.7266 30.6942 39.9369C30.4215 40.1471 30.2298 40.3715 30.119 40.6102L29.1644 40.2693C29.3349 39.8715 29.5621 39.5619 29.8462 39.3403C30.1332 39.1158 30.4457 38.9596 30.7837 38.8715C31.1246 38.7806 31.4599 38.7352 31.7894 38.7352C31.9996 38.7352 32.2411 38.7607 32.5138 38.8119C32.7894 38.8602 33.055 38.961 33.3107 39.1144C33.5692 39.2678 33.7837 39.4994 33.9542 39.809C34.1246 40.1187 34.2099 40.5335 34.2099 41.0533V45.3658H33.2042V44.4795H33.1531C33.0849 44.6215 32.9712 44.7735 32.8121 44.9354C32.6531 45.0974 32.4414 45.2352 32.1772 45.3488C31.913 45.4624 31.5906 45.5193 31.2099 45.5193ZM31.3633 44.6158C31.761 44.6158 32.0962 44.5377 32.369 44.3815C32.6445 44.2252 32.8519 44.0235 32.9911 43.7764C33.1332 43.5292 33.2042 43.2693 33.2042 42.9965V42.0761C33.1616 42.1272 33.0678 42.1741 32.9229 42.2167C32.7809 42.2565 32.6161 42.292 32.4286 42.3232C32.244 42.3516 32.0636 42.3772 31.8874 42.3999C31.7141 42.4198 31.5735 42.4369 31.4656 42.4511C31.2042 42.4852 30.9599 42.5406 30.7326 42.6173C30.5082 42.6911 30.3263 42.8033 30.1871 42.9539C30.0508 43.1016 29.9826 43.3033 29.9826 43.559C29.9826 43.9085 30.1119 44.1727 30.3704 44.3516C30.6317 44.5278 30.9627 44.6158 31.3633 44.6158ZM36.1818 45.3658V36.6386H37.2386V44.4283H41.2955V45.3658H36.1818ZM42.7955 45.3658V38.8204H43.8011V45.3658H42.7955ZM43.3068 37.7295C43.1108 37.7295 42.9418 37.6627 42.7997 37.5292C42.6605 37.3957 42.5909 37.2352 42.5909 37.0477C42.5909 36.8602 42.6605 36.6997 42.7997 36.5661C42.9418 36.4326 43.1108 36.3658 43.3068 36.3658C43.5028 36.3658 43.6705 36.4326 43.8097 36.5661C43.9517 36.6997 44.0227 36.8602 44.0227 37.0477C44.0227 37.2352 43.9517 37.3957 43.8097 37.5292C43.6705 37.6627 43.5028 37.7295 43.3068 37.7295ZM48.2852 47.9568C47.7994 47.9568 47.3817 47.8943 47.0323 47.7693C46.6829 47.6471 46.3917 47.4852 46.1587 47.2835C45.9286 47.0846 45.7454 46.8715 45.609 46.6443L46.4102 46.0818C46.5011 46.2011 46.6161 46.3374 46.7553 46.4908C46.8945 46.6471 47.0849 46.782 47.3263 46.8957C47.5707 47.0122 47.8903 47.0704 48.2852 47.0704C48.8136 47.0704 49.2496 46.9425 49.5934 46.6869C49.9371 46.4312 50.109 46.0306 50.109 45.4852V44.1556H50.0238C49.9499 44.2749 49.8448 44.4227 49.7085 44.5988C49.5749 44.7721 49.3817 44.9269 49.1289 45.0633C48.8789 45.1968 48.5408 45.2636 48.1147 45.2636C47.5863 45.2636 47.1119 45.1386 46.6914 44.8886C46.2738 44.6386 45.9428 44.2749 45.6985 43.7977C45.457 43.3204 45.3363 42.7408 45.3363 42.059C45.3363 41.3886 45.4542 40.8048 45.69 40.3076C45.9258 39.8076 46.2539 39.4212 46.6744 39.1485C47.0948 38.8729 47.5806 38.7352 48.1317 38.7352C48.5579 38.7352 48.896 38.8062 49.146 38.9482C49.3988 39.0874 49.592 39.2465 49.7255 39.4255C49.8619 39.6016 49.967 39.7465 50.0408 39.8602H50.1431V38.8204H51.1147V45.5533C51.1147 46.1158 50.9869 46.5732 50.7312 46.9255C50.4783 47.2806 50.1374 47.5406 49.7085 47.7053C49.2823 47.8729 48.8079 47.9568 48.2852 47.9568ZM48.2511 44.3602C48.6545 44.3602 48.9954 44.2678 49.2738 44.0832C49.5522 43.8985 49.7638 43.6329 49.9087 43.2863C50.0536 42.9397 50.1261 42.5249 50.1261 42.042C50.1261 41.5704 50.055 41.1542 49.913 40.7934C49.771 40.4326 49.5607 40.1499 49.2823 39.9454C49.0039 39.7408 48.6602 39.6386 48.2511 39.6386C47.8249 39.6386 47.4698 39.7465 47.1857 39.9624C46.9045 40.1783 46.6928 40.4681 46.5508 40.8318C46.4116 41.1954 46.342 41.5988 46.342 42.042C46.342 42.4965 46.413 42.8985 46.555 43.2479C46.6999 43.5945 46.913 43.8673 47.1942 44.0661C47.4783 44.2622 47.8306 44.3602 48.2511 44.3602ZM53.9613 41.4283V45.3658H52.9556V36.6386H53.9613V39.8431H54.0465C54.1999 39.505 54.43 39.2366 54.7369 39.0377C55.0465 38.836 55.4585 38.7352 55.9727 38.7352C56.4187 38.7352 56.8093 38.8247 57.1445 39.0036C57.4798 39.1798 57.7397 39.4511 57.9244 39.8175C58.1119 40.1812 58.2056 40.6443 58.2056 41.2068V45.3658H57.1999V41.2749C57.1999 40.755 57.065 40.3531 56.7951 40.069C56.5281 39.782 56.1573 39.6386 55.6829 39.6386C55.3533 39.6386 55.0579 39.7082 54.7965 39.8474C54.538 39.9866 54.3335 40.1897 54.1829 40.4568C54.0352 40.7238 53.9613 41.0477 53.9613 41.4283ZM62.892 38.8204V39.6727H59.5V38.8204H62.892ZM60.4886 37.2522H61.4943V43.4908C61.4943 43.7749 61.5355 43.988 61.6179 44.13C61.7031 44.2693 61.8111 44.363 61.9418 44.4113C62.0753 44.4568 62.2159 44.4795 62.3636 44.4795C62.4744 44.4795 62.5653 44.4738 62.6364 44.4624C62.7074 44.4482 62.7642 44.4369 62.8068 44.4283L63.0114 45.3318C62.9432 45.3573 62.848 45.3829 62.7259 45.4085C62.6037 45.4369 62.4489 45.4511 62.2614 45.4511C61.9773 45.4511 61.6989 45.39 61.4261 45.2678C61.1563 45.1457 60.9318 44.9596 60.7528 44.7096C60.5767 44.4596 60.4886 44.1443 60.4886 43.7636V37.2522Z" fill="black"/>
</g>
<g filter="url(#filter1_d_2_9)">
<mask id="path-2-outside-1_2_9" maskUnits="userSpaceOnUse" x="14" y="6" width="38" height="27" fill="black">
<rect fill="white" x="14" y="6" width="38" height="27"/>
<path d="M29.5455 13.5455C29.4091 12.3939 28.8561 11.5 27.8864 10.8636C26.9167 10.2273 25.7273 9.90909 24.3182 9.90909C23.2879 9.90909 22.3864 10.0758 21.6136 10.4091C20.8485 10.7424 20.25 11.2008 19.8182 11.7841C19.3939 12.3674 19.1818 13.0303 19.1818 13.7727C19.1818 14.3939 19.3295 14.928 19.625 15.375C19.928 15.8144 20.3144 16.1818 20.7841 16.4773C21.2538 16.7652 21.7462 17.0038 22.2614 17.1932C22.7765 17.375 23.25 17.5227 23.6818 17.6364L26.0455 18.2727C26.6515 18.4318 27.3258 18.6515 28.0682 18.9318C28.8182 19.2121 29.5341 19.5947 30.2159 20.0795C30.9053 20.5568 31.4735 21.1705 31.9205 21.9205C32.3674 22.6705 32.5909 23.5909 32.5909 24.6818C32.5909 25.9394 32.2614 27.0758 31.6023 28.0909C30.9508 29.1061 29.9962 29.9129 28.7386 30.5114C27.4886 31.1098 25.9697 31.4091 24.1818 31.4091C22.5152 31.4091 21.072 31.1402 19.8523 30.6023C18.6402 30.0644 17.6856 29.3144 16.9886 28.3523C16.2992 27.3902 15.9091 26.2727 15.8182 25H18.7273C18.803 25.8788 19.0985 26.6061 19.6136 27.1818C20.1364 27.75 20.7955 28.1742 21.5909 28.4545C22.3939 28.7273 23.2576 28.8636 24.1818 28.8636C25.2576 28.8636 26.2235 28.6894 27.0795 28.3409C27.9356 27.9848 28.6136 27.4924 29.1136 26.8636C29.6136 26.2273 29.8636 25.4848 29.8636 24.6364C29.8636 23.8636 29.6477 23.2348 29.2159 22.75C28.7841 22.2652 28.2159 21.8712 27.5114 21.5682C26.8068 21.2652 26.0455 21 25.2273 20.7727L22.3636 19.9545C20.5455 19.4318 19.1061 18.6856 18.0455 17.7159C16.9848 16.7462 16.4545 15.4773 16.4545 13.9091C16.4545 12.6061 16.8068 11.4697 17.5114 10.5C18.2235 9.52273 19.178 8.76515 20.375 8.22727C21.5795 7.68182 22.9242 7.40909 24.4091 7.40909C25.9091 7.40909 27.2424 7.67803 28.4091 8.21591C29.5758 8.74621 30.5 9.47348 31.1818 10.3977C31.8712 11.322 32.2348 12.3712 32.2727 13.5455H29.5455ZM37.2244 31V7.72727H40.0426V28.5H50.8608V31H37.2244Z"/>
</mask>
<path d="M29.5455 13.5455L28.5524 13.6631L28.6569 14.5455H29.5455V13.5455ZM27.8864 10.8636L27.3377 11.6997L27.3377 11.6997L27.8864 10.8636ZM21.6136 10.4091L21.2175 9.49087L21.2142 9.49231L21.6136 10.4091ZM19.8182 11.7841L19.0144 11.1891L19.0094 11.1959L19.8182 11.7841ZM19.625 15.375L18.7908 15.9264L18.7962 15.9346L18.8018 15.9427L19.625 15.375ZM20.7841 16.4773L20.2516 17.3238L20.2615 17.3299L20.7841 16.4773ZM22.2614 17.1932L21.9163 18.1318L21.9285 18.1362L22.2614 17.1932ZM23.6818 17.6364L23.9418 16.6707L23.9363 16.6693L23.6818 17.6364ZM26.0455 18.2727L25.7855 19.2384L25.7916 19.24L26.0455 18.2727ZM28.0682 18.9318L27.715 19.8674L27.7181 19.8685L28.0682 18.9318ZM30.2159 20.0795L29.6363 20.8946L29.6467 20.9017L30.2159 20.0795ZM31.9205 21.9205L32.7795 21.4085L32.7795 21.4085L31.9205 21.9205ZM31.6023 28.0909L30.7635 27.5464L30.7607 27.5508L31.6023 28.0909ZM28.7386 30.5114L28.3089 29.6084L28.3068 29.6094L28.7386 30.5114ZM19.8523 30.6023L19.4467 31.5163L19.4488 31.5173L19.8523 30.6023ZM16.9886 28.3523L16.1758 28.9347L16.1788 28.9389L16.9886 28.3523ZM15.8182 25V24H14.7442L14.8207 25.0712L15.8182 25ZM18.7273 25L19.7236 24.9141L19.6448 24H18.7273V25ZM19.6136 27.1818L18.8683 27.8487L18.8777 27.8589L19.6136 27.1818ZM21.5909 28.4545L21.2585 29.3978L21.2693 29.4014L21.5909 28.4545ZM27.0795 28.3409L27.4566 29.2671L27.4636 29.2642L27.0795 28.3409ZM29.1136 26.8636L29.8964 27.486L29.9 27.4815L29.1136 26.8636ZM29.2159 22.75L29.9627 22.0849L29.9627 22.0849L29.2159 22.75ZM27.5114 21.5682L27.1163 22.4868L27.1163 22.4868L27.5114 21.5682ZM25.2273 20.7727L24.9525 21.7343L24.9596 21.7362L25.2273 20.7727ZM22.3636 19.9545L22.0873 20.9156L22.0889 20.9161L22.3636 19.9545ZM18.0455 17.7159L17.3707 18.4539L17.3707 18.4539L18.0455 17.7159ZM17.5114 10.5L16.7032 9.91108L16.7024 9.9122L17.5114 10.5ZM20.375 8.22727L20.7849 9.13941L20.7875 9.13823L20.375 8.22727ZM28.4091 8.21591L27.9904 9.12405L27.9953 9.12627L28.4091 8.21591ZM31.1818 10.3977L30.3771 10.9914L30.3802 10.9956L31.1818 10.3977ZM32.2727 13.5455V14.5455H33.3055L33.2722 13.5132L32.2727 13.5455ZM30.5385 13.4279C30.3674 11.9829 29.6516 10.826 28.435 10.0276L27.3377 11.6997C28.0605 12.174 28.4508 12.805 28.5524 13.6631L30.5385 13.4279ZM28.435 10.0276C27.2703 9.26321 25.8799 8.90909 24.3182 8.90909V10.9091C25.5746 10.9091 26.5631 11.1913 27.3377 11.6997L28.435 10.0276ZM24.3182 8.90909C23.1814 8.90909 22.1401 9.09293 21.2175 9.49088L22.0097 11.3273C22.6327 11.0586 23.3943 10.9091 24.3182 10.9091V8.90909ZM21.2142 9.49231C20.3129 9.88499 19.5653 10.445 19.0144 11.1891L20.6219 12.3791C20.9347 11.9565 21.3841 11.5999 22.013 11.3259L21.2142 9.49231ZM19.0094 11.1959C18.4571 11.9555 18.1818 12.8256 18.1818 13.7727H20.1818C20.1818 13.235 20.3308 12.7794 20.6269 12.3723L19.0094 11.1959ZM18.1818 13.7727C18.1818 14.558 18.3708 15.2911 18.7908 15.9264L20.4592 14.8236C20.2883 14.565 20.1818 14.2299 20.1818 13.7727H18.1818ZM18.8018 15.9427C19.1849 16.4982 19.6718 16.959 20.2516 17.3237L21.3165 15.6308C20.957 15.4047 20.6712 15.1306 20.4482 14.8073L18.8018 15.9427ZM20.2615 17.3299C20.7872 17.6521 21.3391 17.9195 21.9163 18.1318L22.6064 16.2546C22.1534 16.088 21.7204 15.8782 21.3067 15.6247L20.2615 17.3299ZM21.9285 18.1362C22.464 18.3252 22.964 18.4815 23.4273 18.6034L23.9363 16.6693C23.536 16.5639 23.089 16.4248 22.5942 16.2502L21.9285 18.1362ZM23.4218 18.602L25.7855 19.2383L26.3054 17.3071L23.9418 16.6707L23.4218 18.602ZM25.7916 19.24C26.3565 19.3883 26.997 19.5963 27.715 19.8674L28.4214 17.9963C27.6546 17.7068 26.9465 17.4754 26.2994 17.3055L25.7916 19.24ZM27.7181 19.8685C28.3831 20.1171 29.0222 20.4578 29.6364 20.8945L30.7954 19.2646C30.0459 18.7316 29.2533 18.3072 28.4183 17.9951L27.7181 19.8685ZM29.6467 20.9017C30.2135 21.2942 30.6847 21.8002 31.0614 22.4324L32.7795 21.4085C32.2623 20.5407 31.5971 19.8195 30.7851 19.2574L29.6467 20.9017ZM31.0614 22.4324C31.3957 22.9933 31.5909 23.7266 31.5909 24.6818H33.5909C33.5909 23.4552 33.3391 22.3476 32.7795 21.4085L31.0614 22.4324ZM31.5909 24.6818C31.5909 25.7541 31.3131 26.6999 30.7635 27.5464L32.441 28.6355C33.2096 27.4516 33.5909 26.1247 33.5909 24.6818H31.5909ZM30.7607 27.5508C30.2247 28.3859 29.4246 29.0774 28.3089 29.6084L29.1684 31.4143C30.5678 30.7483 31.6768 29.8262 32.4439 28.631L30.7607 27.5508ZM28.3068 29.6094C27.2248 30.1275 25.862 30.4091 24.1818 30.4091V32.4091C26.0774 32.4091 27.7525 32.0922 29.1705 31.4133L28.3068 29.6094ZM24.1818 30.4091C22.6204 30.4091 21.3208 30.1569 20.2558 29.6873L19.4488 31.5173C20.8232 32.1234 22.4099 32.4091 24.1818 32.4091V30.4091ZM20.2579 29.6882C19.1878 29.2134 18.3803 28.5688 17.7985 27.7656L16.1788 28.9389C16.9909 30.06 18.0925 30.9154 19.4467 31.5163L20.2579 29.6882ZM17.8015 27.7698C17.2281 26.9695 16.8945 26.0322 16.8156 24.9288L14.8207 25.0712C14.9237 26.5132 15.3704 27.8108 16.1758 28.9347L17.8015 27.7698ZM15.8182 26H18.7273V24H15.8182V26ZM17.731 25.0859C17.8226 26.1485 18.1889 27.0892 18.8684 27.8486L20.3589 26.515C20.0081 26.123 19.7835 25.6091 19.7236 24.9141L17.731 25.0859ZM18.8777 27.8589C19.5212 28.5583 20.3234 29.0682 21.2586 29.3977L21.9233 27.5114C21.2675 27.2803 20.7515 26.9417 20.3496 26.5048L18.8777 27.8589ZM21.2693 29.4014C22.1848 29.7123 23.158 29.8636 24.1818 29.8636V27.8636C23.3572 27.8636 22.6031 27.7422 21.9125 27.5077L21.2693 29.4014ZM24.1818 29.8636C25.3659 29.8636 26.4628 29.6716 27.4566 29.2671L26.7025 27.4147C25.9841 27.7072 25.1492 27.8636 24.1818 27.8636V29.8636ZM27.4636 29.2642C28.4516 28.8533 29.2758 28.2664 29.8963 27.486L28.3309 26.2412C27.9515 26.7184 27.4197 27.1164 26.6955 27.4176L27.4636 29.2642ZM29.9 27.4815C30.5454 26.6599 30.8636 25.6972 30.8636 24.6364H28.8636C28.8636 25.2725 28.6818 25.7946 28.3273 26.2458L29.9 27.4815ZM30.8636 24.6364C30.8636 23.6676 30.5876 22.7866 29.9627 22.0849L28.4691 23.4151C28.7079 23.6831 28.8636 24.0597 28.8636 24.6364H30.8636ZM29.9627 22.0849C29.4175 21.4728 28.7213 21 27.9065 20.6495L27.1163 22.4868C27.7106 22.7424 28.1507 23.0575 28.4691 23.4151L29.9627 22.0849ZM27.9065 20.6495C27.1564 20.3269 26.352 20.0473 25.4949 19.8092L24.9596 21.7362C25.7389 21.9527 26.4573 22.2034 27.1163 22.4868L27.9065 20.6495ZM25.502 19.8112L22.6384 18.993L22.0889 20.9161L24.9526 21.7343L25.502 19.8112ZM22.6399 18.9935C20.925 18.5004 19.6368 17.8159 18.7202 16.9779L17.3707 18.4539C18.5753 19.5553 20.1659 20.3632 22.0873 20.9156L22.6399 18.9935ZM18.7202 16.9779C17.887 16.2161 17.4545 15.2251 17.4545 13.9091H15.4545C15.4545 15.7294 16.0827 17.2763 17.3707 18.4539L18.7202 16.9779ZM17.4545 13.9091C17.4545 12.7978 17.7509 11.8716 18.3204 11.0878L16.7024 9.9122C15.8627 11.0678 15.4545 12.4143 15.4545 13.9091H17.4545ZM18.3196 11.0889C18.9206 10.264 19.7326 9.61227 20.7849 9.13941L19.9651 7.31513C18.6235 7.91803 17.5263 8.78143 16.7032 9.91108L18.3196 11.0889ZM20.7875 9.13823C21.8474 8.65829 23.049 8.40909 24.4091 8.40909V6.40909C22.7995 6.40909 21.3117 6.70535 19.9625 7.31632L20.7875 9.13823ZM24.4091 8.40909C25.7886 8.40909 26.9752 8.65601 27.9904 9.12404L28.8278 7.30778C27.5096 6.70005 26.0296 6.40909 24.4091 6.40909V8.40909ZM27.9953 9.12627C29.0251 9.59438 29.8078 10.2196 30.3771 10.9914L31.9865 9.80408C31.1922 8.72733 30.1264 7.89804 28.8229 7.30554L27.9953 9.12627ZM30.3802 10.9956C30.9449 11.7527 31.2418 12.6037 31.2732 13.5777L33.2722 13.5132C33.2279 12.1388 32.7975 10.8912 31.9834 9.79983L30.3802 10.9956ZM32.2727 12.5455H29.5455V14.5455H32.2727V12.5455ZM37.2244 31H36.2244V32H37.2244V31ZM37.2244 7.72727V6.72727H36.2244V7.72727H37.2244ZM40.0426 7.72727H41.0426V6.72727H40.0426V7.72727ZM40.0426 28.5H39.0426V29.5H40.0426V28.5ZM50.8608 28.5H51.8608V27.5H50.8608V28.5ZM50.8608 31V32H51.8608V31H50.8608ZM38.2244 31V7.72727H36.2244V31H38.2244ZM37.2244 8.72727H40.0426V6.72727H37.2244V8.72727ZM39.0426 7.72727V28.5H41.0426V7.72727H39.0426ZM40.0426 29.5H50.8608V27.5H40.0426V29.5ZM49.8608 28.5V31H51.8608V28.5H49.8608ZM50.8608 30H37.2244V32H50.8608V30Z" fill="black" mask="url(#path-2-outside-1_2_9)"/>
</g>
<defs>
<filter id="filter0_d_2_9" x="0.681763" y="36.3658" width="66.3296" height="19.5909" filterUnits="userSpaceOnUse" color-interpolation-filters="sRGB">
<feFlood flood-opacity="0" result="BackgroundImageFix"/>
<feColorMatrix in="SourceAlpha" type="matrix" values="0 0 0 0 0 0 0 0 0 0 0 0 0 0 0 0 0 0 127 0" result="hardAlpha"/>
<feOffset dy="4"/>
<feGaussianBlur stdDeviation="2"/>
<feComposite in2="hardAlpha" operator="out"/>
<feColorMatrix type="matrix" values="0 0 0 0 0 0 0 0 0 0 0 0 0 0 0 0 0 0 0.25 0"/>
<feBlend mode="normal" in2="BackgroundImageFix" result="effect1_dropShadow_2_9"/>
<feBlend mode="normal" in="SourceGraphic" in2="effect1_dropShadow_2_9" result="shape"/>
</filter>
<filter id="filter1_d_2_9" x="11.8182" y="7.40906" width="43.0426" height="32" filterUnits="userSpaceOnUse" color-interpolation-filters="sRGB">
<feFlood flood-opacity="0" result="BackgroundImageFix"/>
<feColorMatrix in="SourceAlpha" type="matrix" values="0 0 0 0 0 0 0 0 0 0 0 0 0 0 0 0 0 0 127 0" result="hardAlpha"/>
<feOffset dy="4"/>
<feGaussianBlur stdDeviation="2"/>
<feComposite in2="hardAlpha" operator="out"/>
<feColorMatrix type="matrix" values="0 0 0 0 0 0 0 0 0 0 0 0 0 0 0 0 0 0 0.25 0"/>
<feBlend mode="normal" in2="BackgroundImageFix" result="effect1_dropShadow_2_9"/>
<feBlend mode="normal" in="SourceGraphic" in2="effect1_dropShadow_2_9" result="shape"/>
</filter>
</defs>
</svg>
