<svg  viewBox="0 0 32 32" fill="currentColor" xmlns="http://www.w3.org/2000/svg">
<path d="M14.6 24L22.1334 16.4666L20.2 14.5333L14.5667 20.1666L11.7667 17.3666L9.86671 19.2666L14.6 24ZM8.00004 29.3333C7.26671 29.3333 6.63893 29.0722 6.11671 28.55C5.59449 28.0277 5.33337 27.4 5.33337 26.6666V5.33329C5.33337 4.59996 5.59449 3.97218 6.11671 3.44996C6.63893 2.92774 7.26671 2.66663 8.00004 2.66663H18.6667L26.6667 10.6666V26.6666C26.6667 27.4 26.4056 28.0277 25.8834 28.55C25.3612 29.0722 24.7334 29.3333 24 29.3333H8.00004ZM17.3334 12V5.33329H8.00004V26.6666H24V12H17.3334Z" />
</svg>
